<?xml version="1.0" encoding="UTF-8" standalone="no"?>
<!DOCTYPE svg PUBLIC "-//W3C//DTD SVG 1.1//EN"
 "http://www.w3.org/Graphics/SVG/1.1/DTD/svg11.dtd">
<!-- Generated by graphviz version 2.40.1 (20161225.0304)
 -->
<!-- Title: StoreFront Pages: 1 -->
<svg width="1537pt" height="573pt"
 viewBox="0.00 0.00 1537.00 572.50" xmlns="http://www.w3.org/2000/svg" xmlns:xlink="http://www.w3.org/1999/xlink">
<g id="graph0" class="graph" transform="scale(1 1) rotate(0) translate(4 568.5)">
<title>StoreFront</title>
<polygon fill="#ffffff" stroke="transparent" points="-4,4 -4,-568.5 1533,-568.5 1533,4 -4,4"/>
<g id="clust1" class="cluster">
<title>cluster374</title>
<g id="a_clust1"><a xlink:href="javascript:window.parent.edit_group('/projects/1931/groups/374/edit');" xlink:title="Users">
<polygon fill="#f7f9f8" stroke="#000000" stroke-dasharray="5,2" points="150,-190 150,-474 686,-474 686,-190 150,-190"/>
<text text-anchor="middle" x="418" y="-458.8" font-family="Times,serif" font-size="14.00" fill="#000000">Users</text>
</a>
</g>
</g>
<g id="clust2" class="cluster">
<title>cluster373</title>
<g id="a_clust2"><a xlink:href="javascript:window.parent.edit_group('/projects/1931/groups/373/edit');" xlink:title="Products">
<polygon fill="#f7f8f9" stroke="#000000" stroke-dasharray="5,2" points="474,-8 474,-181 1521,-181 1521,-8 474,-8"/>
<text text-anchor="middle" x="997.5" y="-165.8" font-family="Times,serif" font-size="14.00" fill="#000000">Products</text>
</a>
</g>
</g>
<!-- 21552 -->
<g id="node1" class="node">
<title>21552</title>
<g id="a_node1"><a xlink:href="javascript:window.parent.edit_table('/projects/1931/tables/21552/edit');" xlink:title="&lt;TABLE&gt;">
<polygon fill="#c2c2c2" stroke="transparent" points="166.5,-255 166.5,-276 307.5,-276 307.5,-255 166.5,-255"/>
<polygon fill="none" stroke="#000000" points="166.5,-255 166.5,-276 307.5,-276 307.5,-255 166.5,-255"/>
<text text-anchor="start" x="223" y="-262.8" font-family="Times,serif" font-weight="bold" font-size="14.00" fill="#000000">User</text>
<polygon fill="#ffffff" stroke="transparent" points="166.5,-234 166.5,-255 228.5,-255 228.5,-234 166.5,-234"/>
<polygon fill="none" stroke="#000000" points="166.5,-234 166.5,-255 228.5,-255 228.5,-234 166.5,-234"/>
<text text-anchor="start" x="169.5" y="-240.8" font-family="Times,serif" font-size="14.00" fill="#000000">User_type</text>
<polygon fill="#ffffff" stroke="transparent" points="228.5,-234 228.5,-255 249.5,-255 249.5,-234 228.5,-234"/>
<polygon fill="none" stroke="#000000" points="228.5,-234 228.5,-255 249.5,-255 249.5,-234 228.5,-234"/>
<text text-anchor="start" x="231.5" y="-240.8" font-family="Times,serif" font-size="14.00" fill="#000000">int</text>
<polygon fill="#ffffff" stroke="transparent" points="249.5,-234 249.5,-255 307.5,-255 307.5,-234 249.5,-234"/>
<polygon fill="none" stroke="#000000" points="249.5,-234 249.5,-255 307.5,-255 307.5,-234 249.5,-234"/>
<text text-anchor="start" x="252.5" y="-240.8" font-family="Times,serif" font-size="14.00" fill="#000000">[not null]</text>
</a>
</g>
</g>
<!-- 21553 -->
<g id="node2" class="node">
<title>21553</title>
<g id="a_node2"><a xlink:href="javascript:window.parent.edit_table('/projects/1931/tables/21553/edit');" xlink:title="&lt;TABLE&gt;">
<polygon fill="#c2c2c2" stroke="transparent" points="488,-286 488,-307 670,-307 670,-286 488,-286"/>
<polygon fill="none" stroke="#000000" points="488,-286 488,-307 670,-307 670,-286 488,-286"/>
<text text-anchor="start" x="536.5" y="-293.8" font-family="Times,serif" font-weight="bold" font-size="14.00" fill="#000000">Administrator</text>
<polygon fill="#ffffff" stroke="transparent" points="488,-265 488,-286 585,-286 585,-265 488,-265"/>
<polygon fill="none" stroke="#000000" points="488,-265 488,-286 585,-286 585,-265 488,-265"/>
<text text-anchor="start" x="491" y="-271.8" font-family="Times,serif" font-size="14.00" fill="#000000">User_id</text>
<polygon fill="#ffffff" stroke="transparent" points="585,-265 585,-286 612,-286 612,-265 585,-265"/>
<polygon fill="none" stroke="#000000" points="585,-265 585,-286 612,-286 612,-265 585,-265"/>
<text text-anchor="start" x="588" y="-271.8" font-family="Times,serif" font-size="14.00" fill="#000000">int</text>
<polygon fill="#ffffff" stroke="transparent" points="612,-265 612,-286 670,-286 670,-265 612,-265"/>
<polygon fill="none" stroke="#000000" points="612,-265 612,-286 670,-286 670,-265 612,-265"/>
<text text-anchor="start" x="615" y="-271.8" font-family="Times,serif" font-size="14.00" fill="#000000">[not null]</text>
<polygon fill="#ffffff" stroke="transparent" points="488,-244 488,-265 585,-265 585,-244 488,-244"/>
<polygon fill="none" stroke="#000000" points="488,-244 488,-265 585,-265 585,-244 488,-244"/>
<text text-anchor="start" x="491" y="-250.8" font-family="Times,serif" font-size="14.00" fill="#000000">User_name</text>
<polygon fill="#ffffff" stroke="transparent" points="585,-244 585,-265 612,-265 612,-244 585,-244"/>
<polygon fill="none" stroke="#000000" points="585,-244 585,-265 612,-265 612,-244 585,-244"/>
<text text-anchor="start" x="588" y="-250.8" font-family="Times,serif" font-size="14.00" fill="#000000">text</text>
<polygon fill="#ffffff" stroke="transparent" points="612,-244 612,-265 670,-265 670,-244 612,-244"/>
<polygon fill="none" stroke="#000000" points="612,-244 612,-265 670,-265 670,-244 612,-244"/>
<text text-anchor="start" x="615" y="-250.8" font-family="Times,serif" font-size="14.00" fill="#000000">[not null]</text>
<polygon fill="#ffffff" stroke="transparent" points="488,-223 488,-244 585,-244 585,-223 488,-223"/>
<polygon fill="none" stroke="#000000" points="488,-223 488,-244 585,-244 585,-223 488,-223"/>
<text text-anchor="start" x="491" y="-229.8" font-family="Times,serif" font-size="14.00" fill="#000000">User_mobile_no</text>
<polygon fill="#ffffff" stroke="transparent" points="585,-223 585,-244 612,-244 612,-223 585,-223"/>
<polygon fill="none" stroke="#000000" points="585,-223 585,-244 612,-244 612,-223 585,-223"/>
<text text-anchor="start" x="588" y="-229.8" font-family="Times,serif" font-size="14.00" fill="#000000">int</text>
<polygon fill="#ffffff" stroke="transparent" points="612,-223 612,-244 670,-244 670,-223 612,-223"/>
<polygon fill="none" stroke="#000000" points="612,-223 612,-244 670,-244 670,-223 612,-223"/>
<text text-anchor="start" x="615" y="-229.8" font-family="Times,serif" font-size="14.00" fill="#000000">[not null]</text>
<polygon fill="#ffffff" stroke="transparent" points="488,-202 488,-223 585,-223 585,-202 488,-202"/>
<polygon fill="none" stroke="#000000" points="488,-202 488,-223 585,-223 585,-202 488,-202"/>
<text text-anchor="start" x="491" y="-208.8" font-family="Times,serif" font-size="14.00" fill="#000000">User_email</text>
<polygon fill="#ffffff" stroke="transparent" points="585,-202 585,-223 612,-223 612,-202 585,-202"/>
<polygon fill="none" stroke="#000000" points="585,-202 585,-223 612,-223 612,-202 585,-202"/>
<text text-anchor="start" x="588" y="-208.8" font-family="Times,serif" font-size="14.00" fill="#000000">text</text>
<polygon fill="#ffffff" stroke="transparent" points="612,-202 612,-223 670,-223 670,-202 612,-202"/>
<polygon fill="none" stroke="#000000" points="612,-202 612,-223 670,-223 670,-202 612,-202"/>
<text text-anchor="start" x="615" y="-208.8" font-family="Times,serif" font-size="14.00" fill="#000000">[not null]</text>
</a>
</g>
</g>
<!-- 21552&#45;&gt;21553 -->
<g id="edge1" class="edge">
<title>21552&#45;&gt;21553</title>
<g id="a_edge1"><a xlink:href="javascript:window.parent.edit_relationship('/projects/1931/relationships/78821/edit');" xlink:title="one">
<path fill="none" stroke="#000000" stroke-dasharray="5,2" d="M315.0764,-255C360.8985,-255 419.3882,-255 469.6551,-255"/>
<polygon fill="#000000" stroke="#000000" points="469.9205,-258.5001 479.9204,-255 469.9204,-251.5001 469.9205,-258.5001"/>
</a>
</g>
<g id="a_edge1&#45;label"><a xlink:href="javascript:window.parent.edit_relationship('/projects/1931/relationships/78821/edit');" xlink:title="one">
<text text-anchor="middle" x="397.5" y="-258.8" font-family="Times,serif" font-size="14.00" fill="#000000">one</text>
</a>
</g>
</g>
<!-- 21554 -->
<g id="node3" class="node">
<title>21554</title>
<g id="a_node3"><a xlink:href="javascript:window.parent.edit_table('/projects/1931/tables/21554/edit');" xlink:title="&lt;TABLE&gt;">
<polygon fill="#c2c2c2" stroke="transparent" points="488,-417 488,-438 670,-438 670,-417 488,-417"/>
<polygon fill="none" stroke="#000000" points="488,-417 488,-438 670,-438 670,-417 488,-417"/>
<text text-anchor="start" x="554.5" y="-424.8" font-family="Times,serif" font-weight="bold" font-size="14.00" fill="#000000">Shopper</text>
<polygon fill="#ffffff" stroke="transparent" points="488,-396 488,-417 585,-417 585,-396 488,-396"/>
<polygon fill="none" stroke="#000000" points="488,-396 488,-417 585,-417 585,-396 488,-396"/>
<text text-anchor="start" x="491" y="-402.8" font-family="Times,serif" font-size="14.00" fill="#000000">User_id</text>
<polygon fill="#ffffff" stroke="transparent" points="585,-396 585,-417 612,-417 612,-396 585,-396"/>
<polygon fill="none" stroke="#000000" points="585,-396 585,-417 612,-417 612,-396 585,-396"/>
<text text-anchor="start" x="588" y="-402.8" font-family="Times,serif" font-size="14.00" fill="#000000">int</text>
<polygon fill="#ffffff" stroke="transparent" points="612,-396 612,-417 670,-417 670,-396 612,-396"/>
<polygon fill="none" stroke="#000000" points="612,-396 612,-417 670,-417 670,-396 612,-396"/>
<text text-anchor="start" x="615" y="-402.8" font-family="Times,serif" font-size="14.00" fill="#000000">[not null]</text>
<polygon fill="#ffffff" stroke="transparent" points="488,-375 488,-396 585,-396 585,-375 488,-375"/>
<polygon fill="none" stroke="#000000" points="488,-375 488,-396 585,-396 585,-375 488,-375"/>
<text text-anchor="start" x="491" y="-381.8" font-family="Times,serif" font-size="14.00" fill="#000000">User_name</text>
<polygon fill="#ffffff" stroke="transparent" points="585,-375 585,-396 612,-396 612,-375 585,-375"/>
<polygon fill="none" stroke="#000000" points="585,-375 585,-396 612,-396 612,-375 585,-375"/>
<text text-anchor="start" x="588" y="-381.8" font-family="Times,serif" font-size="14.00" fill="#000000">text</text>
<polygon fill="#ffffff" stroke="transparent" points="612,-375 612,-396 670,-396 670,-375 612,-375"/>
<polygon fill="none" stroke="#000000" points="612,-375 612,-396 670,-396 670,-375 612,-375"/>
<text text-anchor="start" x="615" y="-381.8" font-family="Times,serif" font-size="14.00" fill="#000000">[not null]</text>
<polygon fill="#ffffff" stroke="transparent" points="488,-354 488,-375 585,-375 585,-354 488,-354"/>
<polygon fill="none" stroke="#000000" points="488,-354 488,-375 585,-375 585,-354 488,-354"/>
<text text-anchor="start" x="491" y="-360.8" font-family="Times,serif" font-size="14.00" fill="#000000">User_mobile_no</text>
<polygon fill="#ffffff" stroke="transparent" points="585,-354 585,-375 612,-375 612,-354 585,-354"/>
<polygon fill="none" stroke="#000000" points="585,-354 585,-375 612,-375 612,-354 585,-354"/>
<text text-anchor="start" x="588" y="-360.8" font-family="Times,serif" font-size="14.00" fill="#000000">int</text>
<polygon fill="#ffffff" stroke="transparent" points="612,-354 612,-375 670,-375 670,-354 612,-354"/>
<polygon fill="none" stroke="#000000" points="612,-354 612,-375 670,-375 670,-354 612,-354"/>
<text text-anchor="start" x="615" y="-360.8" font-family="Times,serif" font-size="14.00" fill="#000000">[not null]</text>
<polygon fill="#ffffff" stroke="transparent" points="488,-333 488,-354 585,-354 585,-333 488,-333"/>
<polygon fill="none" stroke="#000000" points="488,-333 488,-354 585,-354 585,-333 488,-333"/>
<text text-anchor="start" x="491" y="-339.8" font-family="Times,serif" font-size="14.00" fill="#000000">User_email</text>
<polygon fill="#ffffff" stroke="transparent" points="585,-333 585,-354 612,-354 612,-333 585,-333"/>
<polygon fill="none" stroke="#000000" points="585,-333 585,-354 612,-354 612,-333 585,-333"/>
<text text-anchor="start" x="588" y="-339.8" font-family="Times,serif" font-size="14.00" fill="#000000">text</text>
<polygon fill="#ffffff" stroke="transparent" points="612,-333 612,-354 670,-354 670,-333 612,-333"/>
<polygon fill="none" stroke="#000000" points="612,-333 612,-354 670,-354 670,-333 612,-333"/>
<text text-anchor="start" x="615" y="-339.8" font-family="Times,serif" font-size="14.00" fill="#000000">[not null]</text>
</a>
</g>
</g>
<!-- 21552&#45;&gt;21554 -->
<g id="edge2" class="edge">
<title>21552&#45;&gt;21554</title>
<g id="a_edge2"><a xlink:href="javascript:window.parent.edit_relationship('/projects/1931/relationships/78820/edit');" xlink:title="many">
<path fill="none" stroke="#000000" d="M302.1322,-280.1031C349.689,-298.2927 415.0745,-323.3015 470.3626,-344.4482"/>
<polygon fill="#000000" stroke="#000000" points="469.2608,-347.774 479.8513,-348.0774 471.7615,-341.2359 469.2608,-347.774"/>
</a>
</g>
<g id="a_edge2&#45;label"><a xlink:href="javascript:window.parent.edit_relationship('/projects/1931/relationships/78820/edit');" xlink:title="many">
<text text-anchor="middle" x="397.5" y="-323.8" font-family="Times,serif" font-size="14.00" fill="#000000">many</text>
</a>
</g>
</g>
<!-- 21558 -->
<g id="node7" class="node">
<title>21558</title>
<g id="a_node7"><a xlink:href="javascript:window.parent.edit_table('/projects/1931/tables/21558/edit');" xlink:title="&lt;TABLE&gt;">
<polygon fill="#c2c2c2" stroke="transparent" points="753.5,-539 753.5,-560 978.5,-560 978.5,-539 753.5,-539"/>
<polygon fill="none" stroke="#000000" points="753.5,-539 753.5,-560 978.5,-560 978.5,-539 753.5,-539"/>
<text text-anchor="start" x="847.5" y="-546.8" font-family="Times,serif" font-weight="bold" font-size="14.00" fill="#000000">Order</text>
<polygon fill="#ffffff" stroke="transparent" points="753.5,-518 753.5,-539 856.5,-539 856.5,-518 753.5,-518"/>
<polygon fill="none" stroke="#000000" points="753.5,-518 753.5,-539 856.5,-539 856.5,-518 753.5,-518"/>
<text text-anchor="start" x="756.5" y="-524.8" font-family="Times,serif" font-size="14.00" fill="#000000">Order_number</text>
<polygon fill="#ffffff" stroke="transparent" points="856.5,-518 856.5,-539 920.5,-539 920.5,-518 856.5,-518"/>
<polygon fill="none" stroke="#000000" points="856.5,-518 856.5,-539 920.5,-539 920.5,-518 856.5,-518"/>
<text text-anchor="start" x="859.5" y="-524.8" font-family="Times,serif" font-size="14.00" fill="#000000">int</text>
<polygon fill="#ffffff" stroke="transparent" points="920.5,-518 920.5,-539 978.5,-539 978.5,-518 920.5,-518"/>
<polygon fill="none" stroke="#000000" points="920.5,-518 920.5,-539 978.5,-539 978.5,-518 920.5,-518"/>
<text text-anchor="start" x="923.5" y="-524.8" font-family="Times,serif" font-size="14.00" fill="#000000">[not null]</text>
<polygon fill="#ffffff" stroke="transparent" points="753.5,-497 753.5,-518 856.5,-518 856.5,-497 753.5,-497"/>
<polygon fill="none" stroke="#000000" points="753.5,-497 753.5,-518 856.5,-518 856.5,-497 753.5,-497"/>
<text text-anchor="start" x="756.5" y="-503.8" font-family="Times,serif" font-size="14.00" fill="#000000">Order_timestamp</text>
<polygon fill="#ffffff" stroke="transparent" points="856.5,-497 856.5,-518 920.5,-518 920.5,-497 856.5,-497"/>
<polygon fill="none" stroke="#000000" points="856.5,-497 856.5,-518 920.5,-518 920.5,-497 856.5,-497"/>
<text text-anchor="start" x="859.5" y="-503.8" font-family="Times,serif" font-size="14.00" fill="#000000">timestamp</text>
<polygon fill="#ffffff" stroke="transparent" points="920.5,-497 920.5,-518 978.5,-518 978.5,-497 920.5,-497"/>
<polygon fill="none" stroke="#000000" points="920.5,-497 920.5,-518 978.5,-518 978.5,-497 920.5,-497"/>
<text text-anchor="start" x="923.5" y="-503.8" font-family="Times,serif" font-size="14.00" fill="#000000">[not null]</text>
<polygon fill="#ffffff" stroke="transparent" points="753.5,-476 753.5,-497 856.5,-497 856.5,-476 753.5,-476"/>
<polygon fill="none" stroke="#000000" points="753.5,-476 753.5,-497 856.5,-497 856.5,-476 753.5,-476"/>
<text text-anchor="start" x="756.5" y="-482.8" font-family="Times,serif" font-size="14.00" fill="#000000">Order_amount</text>
<polygon fill="#ffffff" stroke="transparent" points="856.5,-476 856.5,-497 920.5,-497 920.5,-476 856.5,-476"/>
<polygon fill="none" stroke="#000000" points="856.5,-476 856.5,-497 920.5,-497 920.5,-476 856.5,-476"/>
<text text-anchor="start" x="859.5" y="-482.8" font-family="Times,serif" font-size="14.00" fill="#000000">int</text>
<polygon fill="#ffffff" stroke="transparent" points="920.5,-476 920.5,-497 978.5,-497 978.5,-476 920.5,-476"/>
<polygon fill="none" stroke="#000000" points="920.5,-476 920.5,-497 978.5,-497 978.5,-476 920.5,-476"/>
<text text-anchor="start" x="923.5" y="-482.8" font-family="Times,serif" font-size="14.00" fill="#000000">[not null]</text>
<polygon fill="#ffffff" stroke="transparent" points="753.5,-455 753.5,-476 856.5,-476 856.5,-455 753.5,-455"/>
<polygon fill="none" stroke="#000000" points="753.5,-455 753.5,-476 856.5,-476 856.5,-455 753.5,-455"/>
<text text-anchor="start" x="756.5" y="-461.8" font-family="Times,serif" font-size="14.00" fill="#000000">Order_status</text>
<polygon fill="#ffffff" stroke="transparent" points="856.5,-455 856.5,-476 920.5,-476 920.5,-455 856.5,-455"/>
<polygon fill="none" stroke="#000000" points="856.5,-455 856.5,-476 920.5,-476 920.5,-455 856.5,-455"/>
<text text-anchor="start" x="859.5" y="-461.8" font-family="Times,serif" font-size="14.00" fill="#000000">text</text>
<polygon fill="#ffffff" stroke="transparent" points="920.5,-455 920.5,-476 978.5,-476 978.5,-455 920.5,-455"/>
<polygon fill="none" stroke="#000000" points="920.5,-455 920.5,-476 978.5,-476 978.5,-455 920.5,-455"/>
<text text-anchor="start" x="923.5" y="-461.8" font-family="Times,serif" font-size="14.00" fill="#000000">[not null]</text>
</a>
</g>
</g>
<!-- 21554&#45;&gt;21558 -->
<g id="edge8" class="edge">
<title>21554&#45;&gt;21558</title>
<g id="a_edge8"><a xlink:href="javascript:window.parent.edit_relationship('/projects/1931/relationships/78812/edit');" xlink:title="many">
<path fill="none" stroke="#000000" d="M678.3997,-428.3273C696.8026,-436.1638 716.2741,-444.4553 735.4286,-452.6118"/>
<polygon fill="#000000" stroke="#000000" points="734.2284,-455.9048 744.8002,-456.6025 736.9709,-449.4644 734.2284,-455.9048"/>
</a>
</g>
<g id="a_edge8&#45;label"><a xlink:href="javascript:window.parent.edit_relationship('/projects/1931/relationships/78812/edit');" xlink:title="many">
<text text-anchor="middle" x="711.5" y="-450.8" font-family="Times,serif" font-size="14.00" fill="#000000">many</text>
</a>
</g>
</g>
<!-- 21557 -->
<g id="node8" class="node">
<title>21557</title>
<g id="a_node8"><a xlink:href="javascript:window.parent.edit_table('/projects/1931/tables/21557/edit');" xlink:title="&lt;TABLE&gt;">
<polygon fill="#c2c2c2" stroke="transparent" points="773.5,-408 773.5,-429 958.5,-429 958.5,-408 773.5,-408"/>
<polygon fill="none" stroke="#000000" points="773.5,-408 773.5,-429 958.5,-429 958.5,-408 773.5,-408"/>
<text text-anchor="start" x="852" y="-415.8" font-family="Times,serif" font-weight="bold" font-size="14.00" fill="#000000">Cart</text>
<polygon fill="#ffffff" stroke="transparent" points="773.5,-387 773.5,-408 873.5,-408 873.5,-387 773.5,-387"/>
<polygon fill="none" stroke="#000000" points="773.5,-387 773.5,-408 873.5,-408 873.5,-387 773.5,-387"/>
<text text-anchor="start" x="776.5" y="-393.8" font-family="Times,serif" font-size="14.00" fill="#000000">Product_name</text>
<polygon fill="#ffffff" stroke="transparent" points="873.5,-387 873.5,-408 900.5,-408 900.5,-387 873.5,-387"/>
<polygon fill="none" stroke="#000000" points="873.5,-387 873.5,-408 900.5,-408 900.5,-387 873.5,-387"/>
<text text-anchor="start" x="876.5" y="-393.8" font-family="Times,serif" font-size="14.00" fill="#000000">text</text>
<polygon fill="#ffffff" stroke="transparent" points="900.5,-387 900.5,-408 958.5,-408 958.5,-387 900.5,-387"/>
<polygon fill="none" stroke="#000000" points="900.5,-387 900.5,-408 958.5,-408 958.5,-387 900.5,-387"/>
<text text-anchor="start" x="903.5" y="-393.8" font-family="Times,serif" font-size="14.00" fill="#000000">[not null]</text>
<polygon fill="#ffffff" stroke="transparent" points="773.5,-366 773.5,-387 873.5,-387 873.5,-366 773.5,-366"/>
<polygon fill="none" stroke="#000000" points="773.5,-366 773.5,-387 873.5,-387 873.5,-366 773.5,-366"/>
<text text-anchor="start" x="776.5" y="-372.8" font-family="Times,serif" font-size="14.00" fill="#000000">Product_id</text>
<polygon fill="#ffffff" stroke="transparent" points="873.5,-366 873.5,-387 900.5,-387 900.5,-366 873.5,-366"/>
<polygon fill="none" stroke="#000000" points="873.5,-366 873.5,-387 900.5,-387 900.5,-366 873.5,-366"/>
<text text-anchor="start" x="876.5" y="-372.8" font-family="Times,serif" font-size="14.00" fill="#000000">int</text>
<polygon fill="#ffffff" stroke="transparent" points="900.5,-366 900.5,-387 958.5,-387 958.5,-366 900.5,-366"/>
<polygon fill="none" stroke="#000000" points="900.5,-366 900.5,-387 958.5,-387 958.5,-366 900.5,-366"/>
<text text-anchor="start" x="903.5" y="-372.8" font-family="Times,serif" font-size="14.00" fill="#000000">[not null]</text>
<polygon fill="#ffffff" stroke="transparent" points="773.5,-345 773.5,-366 873.5,-366 873.5,-345 773.5,-345"/>
<polygon fill="none" stroke="#000000" points="773.5,-345 773.5,-366 873.5,-366 873.5,-345 773.5,-345"/>
<text text-anchor="start" x="776.5" y="-351.8" font-family="Times,serif" font-size="14.00" fill="#000000">Product_quantity</text>
<polygon fill="#ffffff" stroke="transparent" points="873.5,-345 873.5,-366 900.5,-366 900.5,-345 873.5,-345"/>
<polygon fill="none" stroke="#000000" points="873.5,-345 873.5,-366 900.5,-366 900.5,-345 873.5,-345"/>
<text text-anchor="start" x="876.5" y="-351.8" font-family="Times,serif" font-size="14.00" fill="#000000">int</text>
<polygon fill="#ffffff" stroke="transparent" points="900.5,-345 900.5,-366 958.5,-366 958.5,-345 900.5,-345"/>
<polygon fill="none" stroke="#000000" points="900.5,-345 900.5,-366 958.5,-366 958.5,-345 900.5,-345"/>
<text text-anchor="start" x="903.5" y="-351.8" font-family="Times,serif" font-size="14.00" fill="#000000">[not null]</text>
</a>
</g>
</g>
<!-- 21554&#45;&gt;21557 -->
<g id="edge10" class="edge">
<title>21554&#45;&gt;21557</title>
<g id="a_edge10"><a xlink:href="javascript:window.parent.edit_relationship('/projects/1931/relationships/78810/edit');" xlink:title="one">
<path fill="none" stroke="#000000" d="M678.3997,-386.3469C702.9738,-386.4327 729.4532,-386.5251 754.5389,-386.6127"/>
<polygon fill="#000000" stroke="#000000" points="754.8075,-390.1136 764.8197,-386.6486 754.832,-383.1136 754.8075,-390.1136"/>
</a>
</g>
<g id="a_edge10&#45;label"><a xlink:href="javascript:window.parent.edit_relationship('/projects/1931/relationships/78810/edit');" xlink:title="one">
<text text-anchor="middle" x="711.5" y="-389.8" font-family="Times,serif" font-size="14.00" fill="#000000">one</text>
</a>
</g>
</g>
<!-- 21555 -->
<g id="node10" class="node">
<title>21555</title>
<g id="a_node10"><a xlink:href="javascript:window.parent.edit_table('/projects/1931/tables/21555/edit');" xlink:title="&lt;TABLE&gt;">
<polygon fill="#c2c2c2" stroke="transparent" points="779.5,-298 779.5,-319 952.5,-319 952.5,-298 779.5,-298"/>
<polygon fill="none" stroke="#000000" points="779.5,-298 779.5,-319 952.5,-319 952.5,-298 779.5,-298"/>
<text text-anchor="start" x="818" y="-305.8" font-family="Times,serif" font-weight="bold" font-size="14.00" fill="#000000">Shipping Adress</text>
<polygon fill="#ffffff" stroke="transparent" points="779.5,-277 779.5,-298 867.5,-298 867.5,-277 779.5,-277"/>
<polygon fill="none" stroke="#000000" points="779.5,-277 779.5,-298 867.5,-298 867.5,-277 779.5,-277"/>
<text text-anchor="start" x="782.5" y="-283.8" font-family="Times,serif" font-size="14.00" fill="#000000">House_no</text>
<polygon fill="#ffffff" stroke="transparent" points="867.5,-277 867.5,-298 894.5,-298 894.5,-277 867.5,-277"/>
<polygon fill="none" stroke="#000000" points="867.5,-277 867.5,-298 894.5,-298 894.5,-277 867.5,-277"/>
<text text-anchor="start" x="870.5" y="-283.8" font-family="Times,serif" font-size="14.00" fill="#000000">int</text>
<polygon fill="#ffffff" stroke="transparent" points="894.5,-277 894.5,-298 952.5,-298 952.5,-277 894.5,-277"/>
<polygon fill="none" stroke="#000000" points="894.5,-277 894.5,-298 952.5,-298 952.5,-277 894.5,-277"/>
<text text-anchor="start" x="897.5" y="-283.8" font-family="Times,serif" font-size="14.00" fill="#000000">[not null]</text>
<polygon fill="#ffffff" stroke="transparent" points="779.5,-256 779.5,-277 867.5,-277 867.5,-256 779.5,-256"/>
<polygon fill="none" stroke="#000000" points="779.5,-256 779.5,-277 867.5,-277 867.5,-256 779.5,-256"/>
<text text-anchor="start" x="782.5" y="-262.8" font-family="Times,serif" font-size="14.00" fill="#000000">Locality_name</text>
<polygon fill="#ffffff" stroke="transparent" points="867.5,-256 867.5,-277 894.5,-277 894.5,-256 867.5,-256"/>
<polygon fill="none" stroke="#000000" points="867.5,-256 867.5,-277 894.5,-277 894.5,-256 867.5,-256"/>
<text text-anchor="start" x="870.5" y="-262.8" font-family="Times,serif" font-size="14.00" fill="#000000">text</text>
<polygon fill="#ffffff" stroke="transparent" points="894.5,-256 894.5,-277 952.5,-277 952.5,-256 894.5,-256"/>
<polygon fill="none" stroke="#000000" points="894.5,-256 894.5,-277 952.5,-277 952.5,-256 894.5,-256"/>
<text text-anchor="start" x="897.5" y="-262.8" font-family="Times,serif" font-size="14.00" fill="#000000">[not null]</text>
<polygon fill="#ffffff" stroke="transparent" points="779.5,-235 779.5,-256 867.5,-256 867.5,-235 779.5,-235"/>
<polygon fill="none" stroke="#000000" points="779.5,-235 779.5,-256 867.5,-256 867.5,-235 779.5,-235"/>
<text text-anchor="start" x="782.5" y="-241.8" font-family="Times,serif" font-size="14.00" fill="#000000">District_name</text>
<polygon fill="#ffffff" stroke="transparent" points="867.5,-235 867.5,-256 894.5,-256 894.5,-235 867.5,-235"/>
<polygon fill="none" stroke="#000000" points="867.5,-235 867.5,-256 894.5,-256 894.5,-235 867.5,-235"/>
<text text-anchor="start" x="870.5" y="-241.8" font-family="Times,serif" font-size="14.00" fill="#000000">text</text>
<polygon fill="#ffffff" stroke="transparent" points="894.5,-235 894.5,-256 952.5,-256 952.5,-235 894.5,-235"/>
<polygon fill="none" stroke="#000000" points="894.5,-235 894.5,-256 952.5,-256 952.5,-235 894.5,-235"/>
<text text-anchor="start" x="897.5" y="-241.8" font-family="Times,serif" font-size="14.00" fill="#000000">[not null]</text>
<polygon fill="#ffffff" stroke="transparent" points="779.5,-214 779.5,-235 867.5,-235 867.5,-214 779.5,-214"/>
<polygon fill="none" stroke="#000000" points="779.5,-214 779.5,-235 867.5,-235 867.5,-214 779.5,-214"/>
<text text-anchor="start" x="782.5" y="-220.8" font-family="Times,serif" font-size="14.00" fill="#000000">State_name</text>
<polygon fill="#ffffff" stroke="transparent" points="867.5,-214 867.5,-235 894.5,-235 894.5,-214 867.5,-214"/>
<polygon fill="none" stroke="#000000" points="867.5,-214 867.5,-235 894.5,-235 894.5,-214 867.5,-214"/>
<text text-anchor="start" x="870.5" y="-220.8" font-family="Times,serif" font-size="14.00" fill="#000000">text</text>
<polygon fill="#ffffff" stroke="transparent" points="894.5,-214 894.5,-235 952.5,-235 952.5,-214 894.5,-214"/>
<polygon fill="none" stroke="#000000" points="894.5,-214 894.5,-235 952.5,-235 952.5,-214 894.5,-214"/>
<text text-anchor="start" x="897.5" y="-220.8" font-family="Times,serif" font-size="14.00" fill="#000000">[not null]</text>
<polygon fill="#ffffff" stroke="transparent" points="779.5,-193 779.5,-214 867.5,-214 867.5,-193 779.5,-193"/>
<polygon fill="none" stroke="#000000" points="779.5,-193 779.5,-214 867.5,-214 867.5,-193 779.5,-193"/>
<text text-anchor="start" x="782.5" y="-199.8" font-family="Times,serif" font-size="14.00" fill="#000000">Pincode_no</text>
<polygon fill="#ffffff" stroke="transparent" points="867.5,-193 867.5,-214 894.5,-214 894.5,-193 867.5,-193"/>
<polygon fill="none" stroke="#000000" points="867.5,-193 867.5,-214 894.5,-214 894.5,-193 867.5,-193"/>
<text text-anchor="start" x="870.5" y="-199.8" font-family="Times,serif" font-size="14.00" fill="#000000">int</text>
<polygon fill="#ffffff" stroke="transparent" points="894.5,-193 894.5,-214 952.5,-214 952.5,-193 894.5,-193"/>
<polygon fill="none" stroke="#000000" points="894.5,-193 894.5,-214 952.5,-214 952.5,-193 894.5,-193"/>
<text text-anchor="start" x="897.5" y="-199.8" font-family="Times,serif" font-size="14.00" fill="#000000">[not null]</text>
</a>
</g>
</g>
<!-- 21554&#45;&gt;21555 -->
<g id="edge12" class="edge">
<title>21554&#45;&gt;21555</title>
<g id="a_edge12"><a xlink:href="javascript:window.parent.edit_relationship('/projects/1931/relationships/78807/edit');" xlink:title="many">
<path fill="none" stroke="#000000" d="M678.3997,-340.8971C705.2623,-328.7082 734.4016,-315.4862 761.5086,-303.1863"/>
<polygon fill="#000000" stroke="#000000" points="762.9571,-306.3726 770.6172,-299.0533 760.0646,-299.9981 762.9571,-306.3726"/>
</a>
</g>
<g id="a_edge12&#45;label"><a xlink:href="javascript:window.parent.edit_relationship('/projects/1931/relationships/78807/edit');" xlink:title="many">
<text text-anchor="middle" x="711.5" y="-335.8" font-family="Times,serif" font-size="14.00" fill="#000000">many</text>
</a>
</g>
</g>
<!-- 21550 -->
<g id="node4" class="node">
<title>21550</title>
<g id="a_node4"><a xlink:href="javascript:window.parent.edit_table('/projects/1931/tables/21550/edit');" xlink:title="&lt;TABLE&gt;">
<polygon fill="#c2c2c2" stroke="transparent" points="490,-91 490,-112 668,-112 668,-91 490,-91"/>
<polygon fill="none" stroke="#000000" points="490,-91 490,-112 668,-112 668,-91 490,-91"/>
<text text-anchor="start" x="552" y="-98.8" font-family="Times,serif" font-weight="bold" font-size="14.00" fill="#000000">Category</text>
<polygon fill="#ffffff" stroke="transparent" points="490,-70 490,-91 583,-91 583,-70 490,-70"/>
<polygon fill="none" stroke="#000000" points="490,-70 490,-91 583,-91 583,-70 490,-70"/>
<text text-anchor="start" x="493" y="-76.8" font-family="Times,serif" font-size="14.00" fill="#000000">Category_name</text>
<polygon fill="#ffffff" stroke="transparent" points="583,-70 583,-91 610,-91 610,-70 583,-70"/>
<polygon fill="none" stroke="#000000" points="583,-70 583,-91 610,-91 610,-70 583,-70"/>
<text text-anchor="start" x="586" y="-76.8" font-family="Times,serif" font-size="14.00" fill="#000000">text</text>
<polygon fill="#ffffff" stroke="transparent" points="610,-70 610,-91 668,-91 668,-70 610,-70"/>
<polygon fill="none" stroke="#000000" points="610,-70 610,-91 668,-91 668,-70 610,-70"/>
<text text-anchor="start" x="613" y="-76.8" font-family="Times,serif" font-size="14.00" fill="#000000">[not null]</text>
<polygon fill="#ffffff" stroke="transparent" points="490,-49 490,-70 583,-70 583,-49 490,-49"/>
<polygon fill="none" stroke="#000000" points="490,-49 490,-70 583,-70 583,-49 490,-49"/>
<text text-anchor="start" x="493" y="-55.8" font-family="Times,serif" font-size="14.00" fill="#000000">Category_id</text>
<polygon fill="#ffffff" stroke="transparent" points="583,-49 583,-70 610,-70 610,-49 583,-49"/>
<polygon fill="none" stroke="#000000" points="583,-49 583,-70 610,-70 610,-49 583,-49"/>
<text text-anchor="start" x="586" y="-55.8" font-family="Times,serif" font-size="14.00" fill="#000000">text</text>
<polygon fill="#ffffff" stroke="transparent" points="610,-49 610,-70 668,-70 668,-49 610,-49"/>
<polygon fill="none" stroke="#000000" points="610,-49 610,-70 668,-70 668,-49 610,-49"/>
<text text-anchor="start" x="613" y="-55.8" font-family="Times,serif" font-size="14.00" fill="#000000">[not null]</text>
</a>
</g>
</g>
<!-- 21550&#45;&gt;21550 -->
<g id="edge4" class="edge">
<title>21550&#45;&gt;21550</title>
<g id="a_edge4"><a xlink:href="javascript:window.parent.edit_relationship('/projects/1931/relationships/78817/edit');" xlink:title="many">
<path fill="none" stroke="#000000" d="M554.3724,-116.7532C555.4509,-126.7932 563.6602,-134.5 579,-134.5 588.8271,-134.5 595.7278,-131.3371 599.702,-126.4241"/>
<polygon fill="#000000" stroke="#000000" points="603.1095,-127.3353 603.6276,-116.7532 596.6234,-124.7025 603.1095,-127.3353"/>
</a>
</g>
<g id="a_edge4&#45;label"><a xlink:href="javascript:window.parent.edit_relationship('/projects/1931/relationships/78817/edit');" xlink:title="many">
<text text-anchor="middle" x="579" y="-138.3" font-family="Times,serif" font-size="14.00" fill="#000000">many</text>
</a>
</g>
</g>
<!-- 21549 -->
<g id="node5" class="node">
<title>21549</title>
<g id="a_node5"><a xlink:href="javascript:window.parent.edit_table('/projects/1931/tables/21549/edit');" xlink:title="&lt;TABLE&gt;">
<polygon fill="#c2c2c2" stroke="transparent" points="1061.5,-125 1061.5,-146 1248.5,-146 1248.5,-125 1061.5,-125"/>
<polygon fill="none" stroke="#000000" points="1061.5,-125 1061.5,-146 1248.5,-146 1248.5,-125 1061.5,-125"/>
<text text-anchor="start" x="1131.5" y="-132.8" font-family="Times,serif" font-weight="bold" font-size="14.00" fill="#000000">Product</text>
<polygon fill="#ffffff" stroke="transparent" points="1061.5,-104 1061.5,-125 1163.5,-125 1163.5,-104 1061.5,-104"/>
<polygon fill="none" stroke="#000000" points="1061.5,-104 1061.5,-125 1163.5,-125 1163.5,-104 1061.5,-104"/>
<text text-anchor="start" x="1064.5" y="-110.8" font-family="Times,serif" font-size="14.00" fill="#000000">Product_name</text>
<polygon fill="#ffffff" stroke="transparent" points="1163.5,-104 1163.5,-125 1190.5,-125 1190.5,-104 1163.5,-104"/>
<polygon fill="none" stroke="#000000" points="1163.5,-104 1163.5,-125 1190.5,-125 1190.5,-104 1163.5,-104"/>
<text text-anchor="start" x="1166.5" y="-110.8" font-family="Times,serif" font-size="14.00" fill="#000000">text</text>
<polygon fill="#ffffff" stroke="transparent" points="1190.5,-104 1190.5,-125 1248.5,-125 1248.5,-104 1190.5,-104"/>
<polygon fill="none" stroke="#000000" points="1190.5,-104 1190.5,-125 1248.5,-125 1248.5,-104 1190.5,-104"/>
<text text-anchor="start" x="1193.5" y="-110.8" font-family="Times,serif" font-size="14.00" fill="#000000">[not null]</text>
<polygon fill="#ffffff" stroke="transparent" points="1061.5,-83 1061.5,-104 1163.5,-104 1163.5,-83 1061.5,-83"/>
<polygon fill="none" stroke="#000000" points="1061.5,-83 1061.5,-104 1163.5,-104 1163.5,-83 1061.5,-83"/>
<text text-anchor="start" x="1064.5" y="-89.8" font-family="Times,serif" font-size="14.00" fill="#000000">Product_id</text>
<polygon fill="#ffffff" stroke="transparent" points="1163.5,-83 1163.5,-104 1190.5,-104 1190.5,-83 1163.5,-83"/>
<polygon fill="none" stroke="#000000" points="1163.5,-83 1163.5,-104 1190.5,-104 1190.5,-83 1163.5,-83"/>
<text text-anchor="start" x="1166.5" y="-89.8" font-family="Times,serif" font-size="14.00" fill="#000000">int</text>
<polygon fill="#ffffff" stroke="transparent" points="1190.5,-83 1190.5,-104 1248.5,-104 1248.5,-83 1190.5,-83"/>
<polygon fill="none" stroke="#000000" points="1190.5,-83 1190.5,-104 1248.5,-104 1248.5,-83 1190.5,-83"/>
<text text-anchor="start" x="1193.5" y="-89.8" font-family="Times,serif" font-size="14.00" fill="#000000">[not null]</text>
<polygon fill="#ffffff" stroke="transparent" points="1061.5,-62 1061.5,-83 1163.5,-83 1163.5,-62 1061.5,-62"/>
<polygon fill="none" stroke="#000000" points="1061.5,-62 1061.5,-83 1163.5,-83 1163.5,-62 1061.5,-62"/>
<text text-anchor="start" x="1064.5" y="-68.8" font-family="Times,serif" font-size="14.00" fill="#000000">Product_quantity</text>
<polygon fill="#ffffff" stroke="transparent" points="1163.5,-62 1163.5,-83 1190.5,-83 1190.5,-62 1163.5,-62"/>
<polygon fill="none" stroke="#000000" points="1163.5,-62 1163.5,-83 1190.5,-83 1190.5,-62 1163.5,-62"/>
<text text-anchor="start" x="1166.5" y="-68.8" font-family="Times,serif" font-size="14.00" fill="#000000">int</text>
<polygon fill="#ffffff" stroke="transparent" points="1190.5,-62 1190.5,-83 1248.5,-83 1248.5,-62 1190.5,-62"/>
<polygon fill="none" stroke="#000000" points="1190.5,-62 1190.5,-83 1248.5,-83 1248.5,-62 1190.5,-62"/>
<text text-anchor="start" x="1193.5" y="-68.8" font-family="Times,serif" font-size="14.00" fill="#000000">[not null]</text>
<polygon fill="#ffffff" stroke="transparent" points="1061.5,-41 1061.5,-62 1163.5,-62 1163.5,-41 1061.5,-41"/>
<polygon fill="none" stroke="#000000" points="1061.5,-41 1061.5,-62 1163.5,-62 1163.5,-41 1061.5,-41"/>
<text text-anchor="start" x="1064.5" y="-47.8" font-family="Times,serif" font-size="14.00" fill="#000000">Product_price</text>
<polygon fill="#ffffff" stroke="transparent" points="1163.5,-41 1163.5,-62 1190.5,-62 1190.5,-41 1163.5,-41"/>
<polygon fill="none" stroke="#000000" points="1163.5,-41 1163.5,-62 1190.5,-62 1190.5,-41 1163.5,-41"/>
<text text-anchor="start" x="1166.5" y="-47.8" font-family="Times,serif" font-size="14.00" fill="#000000">int</text>
<polygon fill="#ffffff" stroke="transparent" points="1190.5,-41 1190.5,-62 1248.5,-62 1248.5,-41 1190.5,-41"/>
<polygon fill="none" stroke="#000000" points="1190.5,-41 1190.5,-62 1248.5,-62 1248.5,-41 1190.5,-41"/>
<text text-anchor="start" x="1193.5" y="-47.8" font-family="Times,serif" font-size="14.00" fill="#000000">[not null]</text>
<polygon fill="#ffffff" stroke="transparent" points="1061.5,-20 1061.5,-41 1163.5,-41 1163.5,-20 1061.5,-20"/>
<polygon fill="none" stroke="#000000" points="1061.5,-20 1061.5,-41 1163.5,-41 1163.5,-20 1061.5,-20"/>
<text text-anchor="start" x="1064.5" y="-26.8" font-family="Times,serif" font-size="14.00" fill="#000000">Product_category</text>
<polygon fill="#ffffff" stroke="transparent" points="1163.5,-20 1163.5,-41 1190.5,-41 1190.5,-20 1163.5,-20"/>
<polygon fill="none" stroke="#000000" points="1163.5,-20 1163.5,-41 1190.5,-41 1190.5,-20 1163.5,-20"/>
<text text-anchor="start" x="1166.5" y="-26.8" font-family="Times,serif" font-size="14.00" fill="#000000">text</text>
<polygon fill="#ffffff" stroke="transparent" points="1190.5,-20 1190.5,-41 1248.5,-41 1248.5,-20 1190.5,-20"/>
<polygon fill="none" stroke="#000000" points="1190.5,-20 1190.5,-41 1248.5,-41 1248.5,-20 1190.5,-20"/>
<text text-anchor="start" x="1193.5" y="-26.8" font-family="Times,serif" font-size="14.00" fill="#000000">[not null]</text>
</a>
</g>
</g>
<!-- 21550&#45;&gt;21549 -->
<g id="edge6" class="edge">
<title>21550&#45;&gt;21549</title>
<g id="a_edge6"><a xlink:href="javascript:window.parent.edit_relationship('/projects/1931/relationships/78814/edit');" xlink:title="m2m">
<path fill="none" stroke="#000000" d="M686.6035,-81.3739C788.1801,-81.727 939.8595,-82.2541 1042.7672,-82.6117"/>
<polygon fill="#000000" stroke="#000000" points="686.3123,-77.873 676.3001,-81.3381 686.2879,-84.873 686.3123,-77.873"/>
<polygon fill="#000000" stroke="#000000" points="1042.8696,-86.112 1052.8817,-82.6469 1042.894,-79.112 1042.8696,-86.112"/>
</a>
</g>
<g id="a_edge6&#45;label"><a xlink:href="javascript:window.parent.edit_relationship('/projects/1931/relationships/78814/edit');" xlink:title="m2m">
<text text-anchor="middle" x="865.5" y="-86.8" font-family="Times,serif" font-size="14.00" fill="#000000">m2m</text>
</a>
</g>
</g>
<!-- 21551 -->
<g id="node6" class="node">
<title>21551</title>
<g id="a_node6"><a xlink:href="javascript:window.parent.edit_table('/projects/1931/tables/21551/edit');" xlink:title="&lt;TABLE&gt;">
<polygon fill="#c2c2c2" stroke="transparent" points="1369,-93 1369,-114 1505,-114 1505,-93 1369,-93"/>
<polygon fill="none" stroke="#000000" points="1369,-93 1369,-114 1505,-114 1505,-93 1369,-93"/>
<text text-anchor="start" x="1415.5" y="-100.8" font-family="Times,serif" font-weight="bold" font-size="14.00" fill="#000000">Images</text>
<polygon fill="#ffffff" stroke="transparent" points="1369,-72 1369,-93 1447,-93 1447,-72 1369,-72"/>
<polygon fill="none" stroke="#000000" points="1369,-72 1369,-93 1447,-93 1447,-72 1369,-72"/>
<text text-anchor="start" x="1372" y="-78.8" font-family="Times,serif" font-size="14.00" fill="#000000">Image_name</text>
<polygon fill="#ffffff" stroke="transparent" points="1447,-72 1447,-93 1468,-93 1468,-72 1447,-72"/>
<polygon fill="none" stroke="#000000" points="1447,-72 1447,-93 1468,-93 1468,-72 1447,-72"/>
<text text-anchor="start" x="1450" y="-78.8" font-family="Times,serif" font-size="14.00" fill="#000000">int</text>
<polygon fill="#ffffff" stroke="transparent" points="1468,-72 1468,-93 1505,-93 1505,-72 1468,-72"/>
<polygon fill="none" stroke="#000000" points="1468,-72 1468,-93 1505,-93 1505,-72 1468,-72"/>
<text text-anchor="start" x="1471" y="-78.8" font-family="Times,serif" font-size="14.00" fill="#000000">[null]</text>
<polygon fill="#ffffff" stroke="transparent" points="1369,-51 1369,-72 1447,-72 1447,-51 1369,-51"/>
<polygon fill="none" stroke="#000000" points="1369,-51 1369,-72 1447,-72 1447,-51 1369,-51"/>
<text text-anchor="start" x="1372" y="-57.8" font-family="Times,serif" font-size="14.00" fill="#000000">Image_id</text>
<polygon fill="#ffffff" stroke="transparent" points="1447,-51 1447,-72 1468,-72 1468,-51 1447,-51"/>
<polygon fill="none" stroke="#000000" points="1447,-51 1447,-72 1468,-72 1468,-51 1447,-51"/>
<text text-anchor="start" x="1450" y="-57.8" font-family="Times,serif" font-size="14.00" fill="#000000">int</text>
<polygon fill="#ffffff" stroke="transparent" points="1468,-51 1468,-72 1505,-72 1505,-51 1468,-51"/>
<polygon fill="none" stroke="#000000" points="1468,-51 1468,-72 1505,-72 1505,-51 1468,-51"/>
<text text-anchor="start" x="1471" y="-57.8" font-family="Times,serif" font-size="14.00" fill="#000000">[null]</text>
</a>
</g>
</g>
<!-- 21549&#45;&gt;21551 -->
<g id="edge13" class="edge">
<title>21549&#45;&gt;21551</title>
<g id="a_edge13"><a xlink:href="javascript:window.parent.edit_relationship('/projects/1931/relationships/78803/edit');" xlink:title="many">
<path fill="none" stroke="#000000" d="M1256.0899,-83C1286.9369,-83 1320.53,-83 1350.3026,-83"/>
<polygon fill="#000000" stroke="#000000" points="1350.6635,-86.5001 1360.6634,-83 1350.6634,-79.5001 1350.6635,-86.5001"/>
</a>
</g>
<g id="a_edge13&#45;label"><a xlink:href="javascript:window.parent.edit_relationship('/projects/1931/relationships/78803/edit');" xlink:title="many">
<text text-anchor="middle" x="1308.5" y="-86.8" font-family="Times,serif" font-size="14.00" fill="#000000">many</text>
</a>
</g>
</g>
<!-- 21558&#45;&gt;21549 -->
<g id="edge7" class="edge">
<title>21558&#45;&gt;21549</title>
<g id="a_edge7"><a xlink:href="javascript:window.parent.edit_relationship('/projects/1931/relationships/78813/edit');" xlink:title="many">
<path fill="none" stroke="#000000" d="M976.401,-451.2878C979.7641,-448.3116 982.9783,-445.2159 986,-442 1062.2952,-360.8009 1109.4649,-238.8026 1133.8441,-160.0345"/>
<polygon fill="#000000" stroke="#000000" points="1137.2825,-160.7575 1136.8476,-150.1716 1130.5861,-158.7182 1137.2825,-160.7575"/>
</a>
</g>
<g id="a_edge7&#45;label"><a xlink:href="javascript:window.parent.edit_relationship('/projects/1931/relationships/78813/edit');" xlink:title="many">
<text text-anchor="middle" x="1019.5" y="-420.8" font-family="Times,serif" font-size="14.00" fill="#000000">many</text>
</a>
</g>
</g>
<!-- 21557&#45;&gt;21549 -->
<g id="edge9" class="edge">
<title>21557&#45;&gt;21549</title>
<g id="a_edge9"><a xlink:href="javascript:window.parent.edit_relationship('/projects/1931/relationships/78811/edit');" xlink:title="many">
<path fill="none" stroke="#000000" d="M966.119,-346.4237C973.1371,-342.0021 979.8546,-337.1976 986,-332 1042.4398,-284.265 1087.9998,-213.1446 1117.4457,-159.1196"/>
<polygon fill="#000000" stroke="#000000" points="1120.5552,-160.7271 1122.2127,-150.2628 1114.3913,-157.4095 1120.5552,-160.7271"/>
</a>
</g>
<g id="a_edge9&#45;label"><a xlink:href="javascript:window.parent.edit_relationship('/projects/1931/relationships/78811/edit');" xlink:title="many">
<text text-anchor="middle" x="1019.5" y="-312.8" font-family="Times,serif" font-size="14.00" fill="#000000">many</text>
</a>
</g>
</g>
<!-- 21556 -->
<g id="node9" class="node">
<title>21556</title>
<g id="a_node9"><a xlink:href="javascript:window.parent.edit_table('/projects/1931/tables/21556/edit');" xlink:title="&lt;TABLE&gt;">
<polygon fill="#c2c2c2" stroke="transparent" points="8.5,-64 8.5,-98 83.5,-98 83.5,-64 8.5,-64"/>
<polygon fill="none" stroke="#000000" points="8.5,-64 8.5,-98 83.5,-98 83.5,-64 8.5,-64"/>
<text text-anchor="start" x="12" y="-84.8" font-family="Times,serif" font-weight="bold" font-size="14.00" fill="#000000">Application</text>
<text text-anchor="start" x="14" y="-70.8" font-family="Times,serif" font-weight="bold" font-size="14.00" fill="#000000">StoreFront</text>
</a>
</g>
</g>
<!-- 21556&#45;&gt;21552 -->
<g id="edge3" class="edge">
<title>21556&#45;&gt;21552</title>
<g id="a_edge3"><a xlink:href="javascript:window.parent.edit_relationship('/projects/1931/relationships/78819/edit');" xlink:title="many">
<path fill="none" stroke="#000000" stroke-dasharray="5,2" d="M68.9203,-102.3358C102.0732,-132.5379 162.9335,-187.9813 201.472,-223.0897"/>
<polygon fill="#000000" stroke="#000000" points="199.1178,-225.6796 208.8673,-229.8267 203.8319,-220.5049 199.1178,-225.6796"/>
</a>
</g>
<g id="a_edge3&#45;label"><a xlink:href="javascript:window.parent.edit_relationship('/projects/1931/relationships/78819/edit');" xlink:title="many">
<text text-anchor="middle" x="124.5" y="-166.8" font-family="Times,serif" font-size="14.00" fill="#000000">many</text>
</a>
</g>
</g>
<!-- 21556&#45;&gt;21550 -->
<g id="edge5" class="edge">
<title>21556&#45;&gt;21550</title>
<g id="a_edge5"><a xlink:href="javascript:window.parent.edit_relationship('/projects/1931/relationships/78816/edit');" xlink:title="many">
<path fill="none" stroke="#000000" stroke-dasharray="5,2" d="M91.4477,-81C175.2942,-81 355.1662,-81 471.4296,-81"/>
<polygon fill="#000000" stroke="#000000" points="471.7782,-84.5001 481.7782,-81 471.7782,-77.5001 471.7782,-84.5001"/>
</a>
</g>
<g id="a_edge5&#45;label"><a xlink:href="javascript:window.parent.edit_relationship('/projects/1931/relationships/78816/edit');" xlink:title="many">
<text text-anchor="middle" x="348.5" y="-84.8" font-family="Times,serif" font-size="14.00" fill="#000000">many</text>
</a>
</g>
</g>
<!-- 21556&#45;&gt;21549 -->
<g id="edge11" class="edge">
<title>21556&#45;&gt;21549</title>
<g id="a_edge11"><a xlink:href="javascript:window.parent.edit_relationship('/projects/1931/relationships/78809/edit');" xlink:title="many">
<path fill="none" stroke="#000000" stroke-dasharray="5,2" d="M84.1068,-59.8666C121.8178,-41.2249 181.4195,-17 236.5,-17 236.5,-17 236.5,-17 865.5,-17 925.0933,-17 989.9031,-30.5029 1043.0181,-45.2936"/>
<polygon fill="#000000" stroke="#000000" points="1042.2203,-48.7053 1052.7959,-48.0674 1044.1307,-41.9711 1042.2203,-48.7053"/>
</a>
</g>
<g id="a_edge11&#45;label"><a xlink:href="javascript:window.parent.edit_relationship('/projects/1931/relationships/78809/edit');" xlink:title="many">
<text text-anchor="middle" x="446.5" y="-20.8" font-family="Times,serif" font-size="14.00" fill="#000000">many</text>
</a>
</g>
</g>
</g>
</svg>
